<svg xmlns="http://www.w3.org/2000/svg" viewBox="0 0 64 64">
  <rect width="64" height="64" rx="14" fill="#1b1f22"/>
  <rect x="14" y="10" width="36" height="46" rx="5" fill="#eef1ea"/>
  <rect x="23" y="6" width="18" height="9" rx="3" fill="#93d13f"/>
  <path d="M19 23.5 L22 26.5 L27 20.5" fill="none" stroke="#5f9a1c" stroke-width="2.6" stroke-linecap="round" stroke-linejoin="round"/>
  <path d="M31 24 H44" stroke="#9aa39a" stroke-width="2.6" stroke-linecap="round"/>
  <path d="M19 33.5 L22 36.5 L27 30.5" fill="none" stroke="#5f9a1c" stroke-width="2.6" stroke-linecap="round" stroke-linejoin="round"/>
  <path d="M31 34 H44" stroke="#9aa39a" stroke-width="2.6" stroke-linecap="round"/>
  <path d="M19 48 C21 42 23.5 41 23.5 45 C23.5 49 26 49 28 44.5 C29.5 41.5 31 42.5 31 46 C31 48.5 33 48.5 35 46.5 C36.5 45 38 45.5 39 47 L45 47" fill="none" stroke="#1b1f22" stroke-width="2" stroke-linecap="round" stroke-linejoin="round"/>
</svg>
